<svg xmlns="http://www.w3.org/2000/svg" width="1280" height="720" viewBox="0 0 1280 720" role="img" aria-labelledby="title desc">
  <title id="title">AUTOTREND-LOGISTICA architecture diagram</title>
  <desc id="desc">Architecture graph showing request intake, logistics orchestration, vehicle tracking evidence, and enterprise support services.</desc>
  <defs>
    <linearGradient id="bg" x1="0" y1="0" x2="1" y2="1">
      <stop offset="0%" stop-color="#070707"/>
      <stop offset="100%" stop-color="#141414"/>
    </linearGradient>
    <marker id="arrow" markerWidth="12" markerHeight="12" refX="10" refY="6" orient="auto">
      <path d="M0,0 L12,6 L0,12 z" fill="#d9d9d9"/>
    </marker>
  </defs>
  <rect width="1280" height="720" fill="url(#bg)"/>
  <g fill="none" stroke="#2a2a2a" stroke-width="1">
    <path d="M0 140 H1280"/>
    <path d="M0 280 H1280"/>
    <path d="M0 420 H1280"/>
    <path d="M0 560 H1280"/>
  </g>
  <g font-family="SF Mono, JetBrains Mono, monospace" fill="#f5f5f5">
    <text x="56" y="60" font-size="28" font-weight="700">AUTOTREND-LOGISTICA Architecture</text>
    <text x="56" y="90" font-size="16" fill="#bdbdbd">Request Intake -&gt; Workflow Orchestration -&gt; Tracking Evidence -&gt; Notifications and Analytics</text>
  </g>
  <g stroke="#d6d6d6" fill="#101010" stroke-width="1.4" font-family="SF Mono, JetBrains Mono, monospace" font-size="15">
    <rect x="60" y="210" width="240" height="250" rx="18"/>
    <rect x="340" y="170" width="320" height="330" rx="18"/>
    <rect x="710" y="170" width="240" height="330" rx="18"/>
    <rect x="990" y="210" width="230" height="250" rx="18"/>
  </g>
  <g font-family="SF Mono, JetBrains Mono, monospace" fill="#f1f1f1" font-size="15">
    <text x="110" y="245">Operational Intake</text>
    <text x="92" y="278" fill="#bdbdbd">Mobile and web requests</text>
    <text x="92" y="303" fill="#bdbdbd">Department ownership</text>
    <text x="92" y="328" fill="#bdbdbd">Planning confirmations</text>
    <text x="92" y="353" fill="#bdbdbd">Key-status updates</text>

    <text x="412" y="215">Workflow Core</text>
    <text x="382" y="248" fill="#bdbdbd">API gateway and identity</text>
    <text x="382" y="273" fill="#bdbdbd">RBAC enforcement</text>
    <text x="382" y="298" fill="#bdbdbd">Assign, plan, reschedule</text>
    <text x="382" y="323" fill="#bdbdbd">Depart, arrive, complete</text>
    <text x="382" y="348" fill="#bdbdbd">Cancel and audit states</text>
    <text x="382" y="373" fill="#bdbdbd">Outbox, inbox, DLQ patterns</text>

    <text x="760" y="215">Tracking and Evidence</text>
    <text x="742" y="248" fill="#bdbdbd">Vehicle localization</text>
    <text x="742" y="273" fill="#bdbdbd">Photo capture review</text>
    <text x="742" y="298" fill="#bdbdbd">GPS evidence</text>
    <text x="742" y="323" fill="#bdbdbd">OCR identifier extraction</text>
    <text x="742" y="348" fill="#bdbdbd">Internal vehicle record updates</text>

    <text x="1034" y="245">Support Services</text>
    <text x="1016" y="278" fill="#bdbdbd">Notifications</text>
    <text x="1016" y="303" fill="#bdbdbd">Analytics</text>
    <text x="1016" y="328" fill="#bdbdbd">Prioritization</text>
    <text x="1016" y="353" fill="#bdbdbd">PostgreSQL and Flyway</text>
  </g>
  <g stroke="#d9d9d9" stroke-width="2.2" marker-end="url(#arrow)">
    <line x1="300" y1="335" x2="340" y2="335"/>
    <line x1="660" y1="335" x2="710" y2="335"/>
    <line x1="950" y1="335" x2="990" y2="335"/>
  </g>
</svg>
