<svg width="1200" height="1080" viewBox="0 0 1200 1080" xmlns="http://www.w3.org/2000/svg">
  <defs>
    <linearGradient id="bg" x1="0" y1="0" x2="1" y2="1">
      <stop offset="0%" stop-color="#030303"/>
      <stop offset="55%" stop-color="#0b0b0b"/>
      <stop offset="100%" stop-color="#030303"/>
    </linearGradient>
    <radialGradient id="halo" cx="0.5" cy="0.2" r="0.6">
      <stop offset="0%" stop-color="#ffffff" stop-opacity="0.08"/>
      <stop offset="100%" stop-color="#ffffff" stop-opacity="0"/>
    </radialGradient>
    <filter id="soft" x="-50%" y="-50%" width="200%" height="200%">
      <feGaussianBlur stdDeviation="6" result="blur"/>
      <feMerge>
        <feMergeNode in="blur"/>
        <feMergeNode in="SourceGraphic"/>
      </feMerge>
    </filter>
  </defs>

  <rect width="1200" height="1080" fill="url(#bg)"/>
  <rect width="1200" height="1080" fill="url(#halo)"/>

  <g stroke="#ffffff" stroke-opacity="0.12" stroke-width="1">
    <line x1="120" y1="72" x2="1080" y2="72"/>
    <line x1="120" y1="288" x2="1080" y2="288"/>
  </g>

  <g transform="translate(600 150)">
    <circle r="64" fill="none" stroke="#ffffff" stroke-opacity="0.12" stroke-width="10" filter="url(#soft)"/>
    <circle r="58" fill="none" stroke="#ffffff" stroke-opacity="0.85" stroke-width="1.6"/>
    <circle r="46" fill="none" stroke="#ffffff" stroke-opacity="0.35" stroke-width="1"/>

    <g stroke="#ffffff" stroke-opacity="0.75" stroke-width="1" transform="rotate(0)">
      <polygon points="0,-46 40,23 -40,23" fill="none"/>
      <polygon points="0,46 40,-23 -40,-23" fill="none"/>
      <polygon points="0,-46 40,-23 40,23 0,46 -40,23 -40,-23" fill="none" stroke-opacity="0.35"/>
      <line x1="-40" y1="-23" x2="40" y2="23" stroke-opacity="0.55"/>
      <line x1="40" y1="-23" x2="-40" y2="23" stroke-opacity="0.55"/>
    </g>

    <circle r="2" fill="#ffffff"/>
  </g>

  <text x="600" y="242" fill="#ffffff" font-family="SF Pro Display, Helvetica Neue, Arial, sans-serif" font-size="24" font-weight="300" letter-spacing="4" text-anchor="middle">
    Welcome to my world
  </text>
  <text x="600" y="272" fill="#ffffff" font-family="SF Pro Display, Helvetica Neue, Arial, sans-serif" font-size="16" font-weight="300" letter-spacing="3" text-anchor="middle" opacity="0.8">
    Rei Doda
  </text>
  <text x="600" y="300" fill="#ffffff" font-family="SF Pro Text, Helvetica Neue, Arial, sans-serif" font-size="12" font-weight="300" letter-spacing="1.2" text-anchor="middle" opacity="0.6">
    Interested in Artificial Intelligence and Neuroscience.
  </text>

  <g id="details" transform="translate(0 340)">
    <text x="120" y="140" fill="#ffffff" opacity="0.85" font-family="SF Pro Display, Helvetica Neue, Arial, sans-serif" font-size="14" font-weight="300" letter-spacing="3">
      PROFILE
    </text>
    <text x="120" y="166" fill="#ffffff" opacity="0.65" font-family="SF Pro Text, Helvetica Neue, Arial, sans-serif" font-size="12" font-weight="300" letter-spacing="0.6">
      Focused on AI and neuroscience toward the development of AGI.
    </text>
    <text x="120" y="186" fill="#ffffff" opacity="0.65" font-family="SF Pro Text, Helvetica Neue, Arial, sans-serif" font-size="12" font-weight="300" letter-spacing="0.6">
      Building systems that operate beyond human-scale constraints.
    </text>

    <text x="120" y="250" fill="#ffffff" opacity="0.85" font-family="SF Pro Display, Helvetica Neue, Arial, sans-serif" font-size="14" font-weight="300" letter-spacing="3">
      FOCUS AREAS
    </text>
    <text x="120" y="276" fill="#ffffff" opacity="0.65" font-family="SF Pro Text, Helvetica Neue, Arial, sans-serif" font-size="12" font-weight="300" letter-spacing="0.6">
      - AI for cybersecurity: autonomous defense beyond human limits.
    </text>
    <text x="120" y="296" fill="#ffffff" opacity="0.65" font-family="SF Pro Text, Helvetica Neue, Arial, sans-serif" font-size="12" font-weight="300" letter-spacing="0.6">
      - Business solutions: decision intelligence and process automation.
    </text>
    <text x="120" y="316" fill="#ffffff" opacity="0.65" font-family="SF Pro Text, Helvetica Neue, Arial, sans-serif" font-size="12" font-weight="300" letter-spacing="0.6">
      - Autonomous transport: cars, planes, and marine systems.
    </text>
    <text x="120" y="336" fill="#ffffff" opacity="0.65" font-family="SF Pro Text, Helvetica Neue, Arial, sans-serif" font-size="12" font-weight="300" letter-spacing="0.6">
      - Social and communication AI: networks, trust, interaction.
    </text>
    <text x="120" y="356" fill="#ffffff" opacity="0.65" font-family="SF Pro Text, Helvetica Neue, Arial, sans-serif" font-size="12" font-weight="300" letter-spacing="0.6">
      - Virtual reality: adaptive simulation and immersive interfaces.
    </text>

    <text x="120" y="410" fill="#ffffff" opacity="0.85" font-family="SF Pro Display, Helvetica Neue, Arial, sans-serif" font-size="14" font-weight="300" letter-spacing="3">
      PRINCIPLES
    </text>
    <text x="120" y="436" fill="#ffffff" opacity="0.65" font-family="SF Pro Text, Helvetica Neue, Arial, sans-serif" font-size="12" font-weight="300" letter-spacing="0.6">
      - Security-first design with measurable impact.
    </text>
    <text x="120" y="456" fill="#ffffff" opacity="0.65" font-family="SF Pro Text, Helvetica Neue, Arial, sans-serif" font-size="12" font-weight="300" letter-spacing="0.6">
      - Scalable systems that remain interpretable and reliable.
    </text>
    <text x="120" y="476" fill="#ffffff" opacity="0.65" font-family="SF Pro Text, Helvetica Neue, Arial, sans-serif" font-size="12" font-weight="300" letter-spacing="0.6">
      - Human-aligned outcomes in high-stakes environments.
    </text>

    <text x="640" y="140" fill="#ffffff" opacity="0.85" font-family="SF Pro Display, Helvetica Neue, Arial, sans-serif" font-size="14" font-weight="300" letter-spacing="3">
      CURRENT DIRECTIONS
    </text>
    <text x="640" y="166" fill="#ffffff" opacity="0.65" font-family="SF Pro Text, Helvetica Neue, Arial, sans-serif" font-size="12" font-weight="300" letter-spacing="0.6">
      - AGI-oriented architectures inspired by neural systems.
    </text>
    <text x="640" y="186" fill="#ffffff" opacity="0.65" font-family="SF Pro Text, Helvetica Neue, Arial, sans-serif" font-size="12" font-weight="300" letter-spacing="0.6">
      - Cybersecurity agents with real-time, autonomous response.
    </text>
    <text x="640" y="206" fill="#ffffff" opacity="0.65" font-family="SF Pro Text, Helvetica Neue, Arial, sans-serif" font-size="12" font-weight="300" letter-spacing="0.6">
      - Multi-domain automation across enterprise and mobility.
    </text>

    <text x="640" y="250" fill="#ffffff" opacity="0.85" font-family="SF Pro Display, Helvetica Neue, Arial, sans-serif" font-size="14" font-weight="300" letter-spacing="3">
      COLLABORATION
    </text>
    <text x="640" y="276" fill="#ffffff" opacity="0.65" font-family="SF Pro Text, Helvetica Neue, Arial, sans-serif" font-size="12" font-weight="300" letter-spacing="0.6">
      - Security teams, AI labs, and industry partners.
    </text>
    <text x="640" y="296" fill="#ffffff" opacity="0.65" font-family="SF Pro Text, Helvetica Neue, Arial, sans-serif" font-size="12" font-weight="300" letter-spacing="0.6">
      - Builders of business AI, autonomy, and VR platforms.
    </text>
    <text x="640" y="316" fill="#ffffff" opacity="0.65" font-family="SF Pro Text, Helvetica Neue, Arial, sans-serif" font-size="12" font-weight="300" letter-spacing="0.6">
      - Open-source and research communities advancing AGI.
    </text>
  </g>
  <line x1="160" y1="880" x2="1040" y2="880" stroke="#ffffff" stroke-opacity="0.18" stroke-width="1" stroke-linecap="round"/>
  <circle cx="160.00" cy="880" r="3.00" fill="#ffffff" opacity="0.75"/>

  <g transform="translate(600 980) scale(0.107566) translate(-3028.904297 -1973.737610)">
  <path fill="#ECECEC" opacity="1.000000" stroke="none" d=" M3571.917969,2307.537598 C3517.100830,2346.727539 3457.348633,2370.470703 3392.162598,2378.578613 C3283.575439,2392.084473 3183.918945,2367.503906 3096.426025,2300.991455 C3010.396484,2235.591553 2957.307861,2148.886475 2941.594727,2041.729492 C2923.571289,1918.819336 2955.367188,1809.071655 3037.520020,1715.258789 C3099.461426,1644.525879 3177.555420,1600.893921 3270.186035,1585.273438 C3447.394531,1555.390747 3614.547852,1642.208862 3695.005615,1796.503418 C3731.715576,1866.902832 3745.951904,1941.952026 3737.535645,2020.959106 C3724.818848,2140.338379 3668.384521,2234.761230 3571.917969,2307.537598 M3711.702637,2035.963135 C3712.088623,2034.620972 3711.869385,2033.385498 3711.293457,2029.925049 C3704.358887,2027.298706 3706.701660,2033.858765 3702.269531,2037.414795 C3692.715332,2053.981934 3682.976807,2070.446289 3673.669678,2087.151123 C3667.037109,2099.056396 3657.805176,2109.559082 3653.490479,2123.237305 C3656.439941,2128.574707 3659.049072,2133.971436 3662.286377,2138.959961 C3665.367676,2143.708008 3666.317871,2150.369141 3672.938965,2152.364746 C3690.959473,2124.234131 3707.239014,2074.611328 3710.461182,2037.607422 C3710.461182,2037.607422 3710.403809,2037.377686 3711.702637,2035.963135 M3563.006104,2283.856201 C3599.480957,2257.536133 3629.027832,2224.661865 3654.057373,2187.528320 C3655.850098,2184.868408 3658.044678,2182.091553 3654.291504,2177.441650 C3649.428711,2177.441650 3643.575928,2177.441406 3637.723145,2177.441406 C3631.845459,2177.441406 3625.968018,2177.441650 3621.846680,2177.441650 C3619.075439,2179.707764 3617.721436,2180.342773 3617.082764,2181.406982 C3596.977295,2214.909180 3576.941406,2248.452881 3555.595459,2283.912598 C3555.858154,2284.887207 3556.120850,2285.862061 3556.383301,2286.836670 C3557.691406,2286.001465 3558.999756,2285.166016 3563.006104,2283.856201 M3139.805908,2292.511963 C3127.607422,2273.456787 3115.576904,2254.291504 3103.163818,2235.377686 C3090.466064,2216.029785 3078.763672,2195.979248 3065.018311,2177.513916 C3051.097412,2177.513916 3038.476074,2177.397705 3025.861084,2177.623535 C3023.655273,2177.663086 3021.475098,2179.140381 3018.586426,2180.211914 C3020.425049,2183.662842 3021.478516,2186.079346 3022.904297,2188.251465 C3048.406494,2227.097412 3080.428223,2259.729736 3117.895264,2287.033203 C3124.771484,2292.043945 3132.598877,2295.749756 3140.888184,2302.123047 C3145.003174,2300.226074 3144.958984,2299.584717 3139.805908,2292.511963 M3290.778809,2027.125854 C3307.399170,2048.692627 3323.797363,2070.437744 3341.784668,2093.077637 C3394.862061,2025.884033 3446.800781,1960.132202 3498.544678,1894.626831 C3496.589600,1890.480713 3495.384033,1887.360474 3493.730225,1884.499390 C3444.431396,1799.203491 3395.102783,1713.924683 3345.695557,1628.691406 C3343.817139,1625.450562 3341.112549,1622.688599 3337.961670,1618.633911 C3285.948975,1708.577393 3234.679443,1797.235962 3182.866943,1886.833252 C3218.463379,1933.145386 3253.724609,1979.021240 3290.778809,2027.125854 M3073.537598,2159.240479 C3145.392334,2159.240479 3217.247070,2159.240479 3289.231201,2159.240479 C3296.704590,2149.910156 3303.903320,2141.212891 3310.774902,2132.264160 C3317.965820,2122.899658 3326.240967,2114.266602 3331.715576,2104.538330 C3330.458984,2102.038818 3330.040771,2100.734619 3329.255371,2099.712891 C3280.167969,2035.846924 3231.069092,1971.989502 3181.862549,1908.215332 C3180.059814,1905.879028 3177.177246,1904.375488 3174.111572,1901.937988 C3131.199951,1976.154053 3088.969727,2049.191650 3046.440186,2122.747070 C3054.800049,2135.131836 3062.583740,2146.663086 3073.537598,2159.240479 M3530.433594,1947.828125 C3522.702637,1934.723267 3514.971680,1921.618408 3507.070312,1908.224854 C3491.774170,1923.849731 3359.462402,2092.035156 3351.514404,2106.018799 C3365.498535,2123.768066 3378.630371,2142.780029 3393.165771,2159.044434 C3462.335205,2160.942383 3596.030518,2160.244141 3615.562500,2157.829834 C3621.371094,2148.171875 3627.496094,2137.987793 3632.889893,2129.019287 C3632.206787,2125.849365 3632.234131,2124.392822 3631.610840,2123.310791 C3598.395752,2065.650635 3565.125732,2008.021973 3530.433594,1947.828125 M3361.550537,2177.663818 C3342.895508,2177.669922 3324.227783,2178.081787 3305.590332,2177.514648 C3295.989746,2177.222656 3289.623047,2180.585693 3283.717773,2188.163330 C3251.369629,2229.671143 3218.529541,2270.795410 3185.943604,2312.118408 C3183.598389,2315.092285 3181.928711,2318.598633 3179.910156,2321.914307 C3271.535645,2369.489990 3405.679932,2369.175049 3497.208252,2321.902832 C3497.491699,2315.083740 3492.128906,2311.312256 3488.608154,2306.708252 C3460.689697,2270.197754 3432.653076,2233.776611 3404.540771,2197.414551 C3386.492188,2174.069580 3393.430908,2178.196045 3361.550537,2177.663818 M3114.154053,1819.917725 C3097.900391,1798.804688 3081.693115,1777.655273 3065.335449,1756.623047 C3063.207275,1753.886719 3060.302002,1751.754517 3056.607422,1748.253540 C3024.325439,1829.824585 2992.764404,1909.573486 2961.157471,1989.438843 C2985.257568,2027.767944 3009.257324,2065.072510 3034.823486,2104.403809 C3050.960693,2078.871826 3064.239258,2054.415283 3078.264160,2030.423462 C3092.711426,2005.709595 3107.037842,1980.923706 3121.242432,1956.069580 C3135.049316,1931.911255 3149.732178,1908.227051 3162.768555,1883.346680 C3146.646240,1862.304199 3131.275635,1842.242432 3114.154053,1819.917725 M3599.239014,1789.286499 C3586.035889,1805.991333 3572.728516,1822.615356 3559.658203,1839.423218 C3546.269043,1856.641602 3531.822754,1873.079468 3520.147705,1890.700928 C3520.918945,1893.107544 3521.108643,1894.477051 3521.749268,1895.586304 C3560.995361,1963.537109 3600.260742,2031.476685 3639.625488,2099.358643 C3641.096436,2101.894775 3643.561768,2103.854248 3646.354004,2106.961914 C3666.223633,2073.980713 3685.350830,2042.231567 3703.718750,2011.742676 C3695.182129,1969.993164 3687.123291,1930.249268 3678.915039,1890.536621 C3671.646973,1855.374634 3664.338867,1820.219849 3656.791016,1785.117310 C3653.613281,1770.338135 3645.390869,1758.482178 3631.842041,1748.079346 C3621.558350,1761.044922 3611.255615,1774.034668 3599.239014,1789.286499 M3536.637695,1846.572998 C3551.103760,1828.286133 3565.607422,1810.028931 3580.025635,1791.704468 C3594.783691,1772.948242 3609.871826,1754.436890 3623.867920,1735.546387 C3563.426514,1660.464722 3454.234131,1604.270508 3355.536133,1605.534546 C3357.572998,1610.067017 3359.066162,1614.344971 3361.291260,1618.200439 C3409.213135,1701.236328 3457.191406,1784.239868 3505.302002,1867.166382 C3507.092041,1870.251587 3507.780518,1875.183350 3514.048828,1874.781616 C3520.784180,1866.429199 3527.870117,1857.641968 3536.637695,1846.572998 M3316.471924,1618.382690 C3318.596191,1614.401978 3320.720703,1610.421265 3323.087158,1605.987061 C3244.780273,1597.407593 3107.678467,1661.231445 3061.220459,1727.315918 C3063.270752,1730.536499 3065.156250,1734.078613 3067.574463,1737.209473 C3100.947021,1780.418823 3134.390869,1823.572998 3167.845215,1866.719238 C3168.223877,1867.207520 3168.937988,1867.561768 3169.557129,1867.698364 C3170.062500,1867.809937 3170.660156,1867.501587 3172.698486,1867.054443 C3219.839111,1785.623047 3267.494385,1703.302246 3316.471924,1618.382690 M3564.423340,2242.449219 C3575.455078,2224.257324 3586.508057,2206.078125 3597.496094,2187.859619 C3599.136475,2185.139893 3601.516113,2182.382324 3598.527832,2178.575928 C3596.947754,2178.297119 3595.082764,2177.682129 3593.217529,2177.680664 C3534.678711,2177.629883 3476.140137,2177.615723 3417.601562,2177.725342 C3415.249023,2177.729736 3412.898926,2178.994873 3409.646484,2179.932617 C3417.142822,2193.126221 3426.645020,2203.387207 3434.944580,2214.495361 C3443.303467,2225.683105 3451.874268,2236.712646 3460.379883,2247.790527 C3469.290771,2259.396240 3477.997314,2271.169678 3487.231689,2282.513184 C3495.957764,2293.231934 3502.626465,2305.754150 3513.266602,2313.847412 C3522.281494,2312.199463 3526.041016,2305.913086 3529.875000,2299.543701 C3540.846436,2281.315918 3551.956787,2263.171875 3564.423340,2242.449219 M3151.829590,2286.229736 C3157.738037,2293.899414 3160.655029,2303.944336 3170.442627,2310.166504 C3204.009766,2267.437988 3237.224121,2225.177979 3270.336670,2182.838379 C3270.876221,2182.148193 3270.171143,2180.484131 3270.039551,2179.275391 C3250.313721,2176.761230 3102.555176,2176.957520 3086.071045,2179.519531 C3085.818359,2180.086670 3085.183105,2180.895020 3085.367188,2181.186768 C3106.951416,2215.409668 3128.596924,2249.594238 3151.829590,2286.229736 M2964.156738,2032.134155 C2972.375977,2084.941162 2988.627441,2133.227783 3005.945068,2154.763672 C3013.995850,2142.488281 3021.110596,2130.277100 3027.229736,2117.606201 C3010.707520,2091.851318 2994.893799,2067.182373 2979.054932,2042.529419 C2976.174805,2038.046021 2973.332764,2033.524780 2970.174316,2029.241333 C2969.156982,2027.861694 2967.181396,2027.188965 2965.644043,2026.192749 C2965.119629,2027.175171 2964.595459,2028.157593 2964.156738,2032.134155 M2986.035400,1844.354248 C2976.638428,1868.612915 2969.822021,1893.575073 2965.764404,1919.273071 C2965.187012,1922.929688 2966.165283,1925.813477 2972.433105,1925.273071 C2992.332520,1874.087036 3012.515137,1822.206421 3032.583984,1770.281860 C3032.941162,1769.358276 3031.941650,1767.910156 3031.536133,1766.578979 C3030.338867,1766.578979 3028.417725,1766.060913 3027.970947,1766.653687 C3010.694336,1789.577026 2997.843018,1814.925537 2986.035400,1844.354248 M3683.495117,1828.201660 C3682.886963,1827.934570 3682.294434,1827.530884 3681.663818,1827.457886 C3681.351807,1827.421875 3680.655273,1828.007324 3680.666748,1828.289795 C3680.800049,1831.564453 3680.653076,1834.913086 3681.302002,1838.094849 C3690.322510,1882.318604 3699.432861,1926.524170 3708.588867,1970.720093 C3709.750244,1976.325684 3711.324219,1981.841064 3714.644531,1986.791260 C3716.754883,1932.350220 3707.161865,1880.276855 3683.495117,1828.201660 M3349.183838,2159.662598 C3356.650635,2158.890869 3364.598633,2161.423340 3373.449951,2156.718262 C3362.554443,2142.698730 3353.183594,2129.347412 3342.261963,2117.055176 C3324.768066,2133.717041 3314.572754,2147.733887 3311.727539,2159.663086 C3323.186768,2159.663086 3334.342773,2159.663086 3349.183838,2159.662598 M3033.769043,2143.743164 C3031.586670,2148.344971 3029.404297,2152.946533 3026.791992,2158.454834 C3035.886963,2160.332275 3043.339111,2160.464355 3052.472900,2158.375732 C3049.757324,2153.349609 3047.799805,2149.320068 3045.449951,2145.533691 C3044.097412,2143.353760 3042.368896,2141.181885 3040.287354,2139.785400 C3039.404785,2139.193115 3037.181152,2140.598877 3033.769043,2143.743164 M3635.737061,2149.791016 C3634.671875,2152.551270 3633.606934,2155.311523 3632.249023,2158.830811 C3639.246094,2158.830811 3644.783936,2158.830811 3652.315186,2158.830811 C3648.499268,2152.367188 3645.644043,2147.531250 3642.545166,2142.282227 C3640.114502,2144.548096 3638.696289,2145.870605 3635.737061,2149.791016 M2966.913818,1927.395264 C2962.473145,1930.808228 2962.684570,1934.357422 2966.839844,1938.504517 C2967.911865,1935.125366 2968.864502,1932.122925 2966.913818,1927.395264 M3033.961182,1760.009521 C3033.821533,1761.201904 3033.681885,1762.394165 3033.542236,1763.586670 C3034.327393,1763.062012 3035.112549,1762.537354 3033.961182,1760.009521 M3037.292725,1754.319702 C3037.292725,1754.319702 3038.155029,1754.951416 3038.155029,1754.951416 C3038.155029,1754.951416 3038.117432,1753.626953 3037.292725,1754.319702 z"/>
  <path fill="#ECECEC" opacity="1.000000" stroke="none" d=" M2297.418945,2155.999023 C2297.544189,1968.695679 2297.666260,1783.392456 2297.857666,1598.089478 C2297.858887,1596.897949 2298.821533,1595.707397 2299.898438,1593.210938 C2303.015137,1592.935303 2306.803955,1592.309448 2310.593262,1592.307617 C2411.914551,1592.257202 2513.237549,1591.938721 2614.556885,1592.372559 C2705.591064,1592.762451 2775.188721,1654.495239 2788.997070,1745.149536 C2793.077881,1771.941650 2792.460205,1798.364258 2786.981445,1824.627930 C2777.333008,1870.880859 2753.135986,1908.095459 2715.269287,1936.392822 C2711.551270,1939.171265 2707.835205,1941.953247 2704.169922,1944.800293 C2703.688965,1945.173950 2703.517090,1945.945801 2702.806152,1947.270020 C2704.890137,1948.492065 2706.855469,1950.204346 2709.130859,1950.896851 C2776.865723,1971.509155 2817.635986,2018.428955 2837.684326,2084.494629 C2854.731445,2140.671143 2852.646484,2196.586914 2828.476318,2250.442627 C2795.429932,2324.077881 2737.675537,2363.006836 2657.269775,2368.465820 C2651.293213,2368.871582 2645.276855,2368.772217 2639.279053,2368.773438 C2531.958496,2368.792969 2424.637695,2368.802734 2317.317139,2368.766602 C2311.408203,2368.764648 2305.499268,2368.342285 2300.473145,2368.149414 C2299.163330,2366.775146 2298.620605,2366.385986 2298.335449,2365.857910 C2298.027100,2365.286865 2297.808594,2364.586914 2297.807129,2363.942871 C2297.661865,2295.294922 2297.541016,2226.646973 2297.418945,2155.999023 M2742.919678,2317.679199 C2777.783691,2294.939209 2800.879639,2263.127197 2813.571045,2223.889404 C2830.891602,2170.340820 2828.109619,2117.507080 2804.507568,2066.344482 C2780.647461,2014.621338 2740.668457,1982.018921 2684.760986,1970.202393 C2670.542236,1967.197144 2655.707275,1965.951416 2641.148193,1965.899658 C2539.264893,1965.537964 2437.380127,1965.688965 2335.495605,1965.747803 C2331.703369,1965.750000 2327.518066,1964.732422 2324.416260,1968.114258 C2322.215088,1985.885742 2322.177734,2324.543945 2324.514648,2344.081787 C2327.407715,2344.327393 2330.556885,2344.827393 2333.705811,2344.828369 C2438.253906,2344.858643 2542.801758,2344.829834 2647.349854,2344.836426 C2680.726562,2344.838623 2711.810059,2336.554688 2742.919678,2317.679199 M2322.795166,1793.999268 C2322.887451,1841.261719 2322.978760,1888.524292 2323.080566,1935.786743 C2323.082031,1936.448853 2323.049805,1937.192627 2323.329834,1937.749390 C2323.607666,1938.302490 2324.260254,1938.667480 2326.196045,1940.441406 C2328.468506,1940.517334 2332.346680,1940.759277 2336.224854,1940.760010 C2426.763184,1940.777954 2517.301758,1940.774658 2607.840088,1940.752197 C2612.498291,1940.750977 2617.160156,1940.628418 2621.814209,1940.420044 C2688.707031,1937.425781 2743.272461,1893.227783 2760.988525,1828.370728 C2770.184570,1794.704712 2770.021973,1761.267822 2760.219482,1727.943237 C2745.757324,1678.777588 2714.645996,1644.579224 2666.631104,1626.322876 C2649.070068,1619.645874 2630.569092,1617.035034 2611.818848,1617.013672 C2519.948975,1616.908447 2428.079102,1616.939087 2336.209229,1616.970825 C2332.378662,1616.972168 2328.548096,1617.463257 2325.221680,1617.691772 C2324.247559,1619.859863 2323.243896,1621.054565 2323.239502,1622.252930 C2323.036865,1678.168213 2322.921143,1734.083618 2322.795166,1793.999268 z"/>
  <path fill="#F3F3F3" opacity="1.000000" stroke="none" d=" M3875.729004,2143.996582 C3875.793701,1960.070801 3875.855225,1778.145264 3875.984863,1596.219727 C3875.985840,1595.016724 3876.923584,1593.814453 3877.667480,1592.025635 C3883.319580,1592.025635 3889.215332,1592.025635 3896.442871,1592.025635 C4062.591553,1831.747559 4229.065430,2071.938721 4396.513184,2313.534424 C4399.565430,2310.310791 4402.870605,2308.452637 4403.153320,2306.212891 C4403.982422,2299.644043 4403.695312,2292.923340 4403.695801,2286.262207 C4403.710449,2062.351074 4403.703125,1838.440063 4403.730469,1614.528931 C4403.730957,1607.307739 4404.062012,1600.086426 4404.248535,1592.462280 C4412.438965,1591.106445 4419.494629,1590.634888 4426.932617,1593.214478 C4426.932617,1851.228271 4426.932617,2108.909668 4426.932617,2367.656738 C4419.274414,2367.656738 4412.183594,2367.656738 4403.844727,2367.656738 C4321.193848,2248.331055 4238.204590,2128.449219 4155.143066,2008.617065 C4072.589355,1889.516724 3990.228760,1770.280151 3906.392578,1649.662842 C3903.373779,1653.854980 3900.953369,1655.702881 3900.766113,1657.754517 C3900.162109,1664.369507 3900.295410,1671.059692 3900.294922,1677.720825 C3900.280029,1900.299194 3900.287842,2122.877441 3900.262451,2345.455811 C3900.261475,2352.691650 3899.952148,2359.927734 3899.769287,2367.916504 C3891.682617,2367.916504 3884.579834,2367.916504 3875.985596,2367.916504 C3875.438721,2343.020508 3875.814941,2318.471924 3875.744629,2293.936523 C3875.673828,2269.279785 3875.729004,2244.622803 3875.729004,2219.965820 C3875.729004,2195.309326 3875.729004,2170.653076 3875.729004,2143.996582 z"/>
  <path fill="#F1F1F1" opacity="1.000000" stroke="none" d=" M1832.003174,1591.414062 C1951.830566,1591.414062 2069.657959,1591.414062 2188.326660,1591.414062 C2188.326660,1599.978882 2188.326660,1607.096680 2188.326660,1614.999268 C2170.931885,1617.238647 2153.695312,1615.782837 2136.531006,1616.029907 C2118.543457,1616.288818 2100.549072,1616.087891 2082.557861,1616.087891 C2065.232910,1616.087891 2047.907959,1616.087891 2030.583008,1616.087891 C2012.591675,1616.087891 1994.600464,1616.087891 1976.609131,1616.087891 C1959.340698,1616.087891 1942.072266,1616.087769 1923.567139,1616.087769 C1922.391235,1635.179932 1923.125244,1653.116089 1922.997803,1671.015991 C1922.869629,1689.006348 1922.969482,1706.998291 1922.969482,1724.989624 C1922.969482,1742.314575 1922.969482,1759.639526 1922.969482,1776.964478 C1922.969482,1794.955811 1922.969482,1812.947021 1922.969482,1830.938354 C1922.969482,1848.929565 1922.969482,1866.920898 1922.969482,1884.912109 C1922.969482,1902.903442 1922.969482,1920.894653 1922.969482,1938.885986 C1922.969482,1956.877319 1922.969482,1974.868530 1922.969482,1992.859863 C1922.969482,2010.184814 1922.969482,2027.509766 1922.969482,2044.834717 C1922.969482,2062.825928 1922.969482,2080.817383 1922.969482,2098.808594 C1922.969482,2116.799805 1922.969482,2134.791260 1922.969482,2152.782471 C1922.969482,2170.773682 1922.969482,2188.765137 1922.969482,2206.756348 C1922.969482,2224.081299 1922.969482,2241.406250 1922.969482,2258.731201 C1922.969482,2276.722412 1922.969482,2294.713867 1922.969482,2312.705078 C1922.969482,2330.603271 1922.969727,2348.501465 1922.969727,2366.537109 C1915.051636,2369.666260 1908.017944,2368.998047 1899.465332,2367.704346 C1899.411499,2339.403076 1899.338379,2311.550293 1899.311401,2283.697266 C1899.285034,2256.377197 1899.305664,2229.056885 1899.305664,2201.736816 C1899.305664,2173.750488 1899.305664,2145.763916 1899.305664,2117.777588 C1899.305664,2089.791016 1899.305664,2061.804688 1899.305664,2033.818237 C1899.305664,2006.498169 1899.305664,1979.177979 1899.305664,1951.857910 C1899.305664,1923.871460 1899.305664,1895.885010 1899.305664,1867.898560 C1899.305664,1839.912109 1899.305664,1811.925659 1899.305664,1783.939209 C1899.305664,1756.619141 1899.389526,1729.298584 1899.282227,1701.979004 C1899.172974,1674.163452 1899.781738,1646.327637 1898.907593,1620.335205 C1896.921997,1618.062134 1896.564819,1617.427368 1896.022217,1617.096191 C1895.493042,1616.773315 1894.781372,1616.713257 1894.137817,1616.621948 C1892.822021,1616.435303 1891.501099,1616.213379 1890.177002,1616.170776 C1887.513794,1616.085083 1884.847168,1616.092163 1882.181885,1616.091675 C1801.554443,1616.075317 1720.926880,1616.064453 1640.299438,1616.033569 C1638.977783,1616.033081 1637.652710,1615.823975 1636.335938,1615.659546 C1635.677979,1615.577271 1635.034790,1615.375854 1633.898926,1615.118042 C1630.875977,1608.339478 1632.434204,1601.158447 1632.459961,1593.256592 C1638.397217,1590.507446 1644.365356,1591.464233 1650.091064,1591.457397 C1710.061768,1591.386597 1770.032349,1591.413940 1832.003174,1591.414062 z"/>
  <path fill="#030303" opacity="1.000000" stroke="none" d=" M3289.882324,2026.011475 C3253.724609,1979.021240 3218.463379,1933.145386 3182.866943,1886.833252 C3234.679443,1797.235962 3285.948975,1708.577393 3337.961670,1618.633911 C3341.112549,1622.688599 3343.817139,1625.450562 3345.695557,1628.691406 C3395.102783,1713.924683 3444.431396,1799.203491 3493.730225,1884.499390 C3495.384033,1887.360474 3496.589600,1890.480713 3498.544678,1894.626831 C3446.800781,1960.132202 3394.862061,2025.884033 3341.784668,2093.077637 C3323.797363,2070.437744 3307.399170,2048.692627 3289.882324,2026.011475 z"/>
  <path fill="#040404" opacity="1.000000" stroke="none" d=" M3071.952637,2158.717285 C3062.583740,2146.663086 3054.800049,2135.131836 3046.440186,2122.747070 C3088.969727,2049.191650 3131.199951,1976.154053 3174.111572,1901.937988 C3177.177246,1904.375488 3180.059814,1905.879028 3181.862549,1908.215332 C3231.069092,1971.989502 3280.167969,2035.846924 3329.255371,2099.712891 C3330.040771,2100.734619 3330.458984,2102.038818 3331.715576,2104.538330 C3326.240967,2114.266602 3317.965820,2122.899658 3310.774902,2132.264160 C3303.903320,2141.212891 3296.704590,2149.910156 3289.231201,2159.240479 C3217.247070,2159.240479 3145.392334,2159.240479 3071.952637,2158.717285 z"/>
  <path fill="#040404" opacity="1.000000" stroke="none" d=" M3531.147461,1949.109131 C3565.125732,2008.021973 3598.395752,2065.650635 3631.610840,2123.310791 C3632.234131,2124.392822 3632.206787,2125.849365 3632.889893,2129.019287 C3627.496094,2137.987793 3621.371094,2148.171875 3615.562500,2157.829834 C3596.030518,2160.244141 3462.335205,2160.942383 3393.165771,2159.044434 C3378.630371,2142.780029 3365.498535,2123.768066 3351.514404,2106.018799 C3359.462402,2092.035156 3491.774170,1923.849731 3507.070312,1908.224854 C3514.971680,1921.618408 3522.702637,1934.723267 3531.147461,1949.109131 z"/>
  <path fill="#040404" opacity="1.000000" stroke="none" d=" M3363.473145,2177.665039 C3393.430908,2178.196045 3386.492188,2174.069580 3404.540771,2197.414551 C3432.653076,2233.776611 3460.689697,2270.197754 3488.608154,2306.708252 C3492.128906,2311.312256 3497.491699,2315.083740 3497.208252,2321.902832 C3405.679932,2369.175049 3271.535645,2369.489990 3179.910156,2321.914307 C3181.928711,2318.598633 3183.598389,2315.092285 3185.943604,2312.118408 C3218.529541,2270.795410 3251.369629,2229.671143 3283.717773,2188.163330 C3289.623047,2180.585693 3295.989746,2177.222656 3305.590332,2177.514648 C3324.227783,2178.081787 3342.895508,2177.669922 3363.473145,2177.665039 z"/>
  <path fill="#040404" opacity="1.000000" stroke="none" d=" M3115.029297,1821.049194 C3131.275635,1842.242432 3146.646240,1862.304199 3162.768555,1883.346680 C3149.732178,1908.227051 3135.049316,1931.911255 3121.242432,1956.069580 C3107.037842,1980.923706 3092.711426,2005.709595 3078.264160,2030.423462 C3064.239258,2054.415283 3050.960693,2078.871826 3034.823486,2104.403809 C3009.257324,2065.072510 2985.257568,2027.767944 2961.157471,1989.438843 C2992.764404,1909.573486 3024.325439,1829.824585 3056.607422,1748.253540 C3060.302002,1751.754517 3063.207275,1753.886719 3065.335449,1756.623047 C3081.693115,1777.655273 3097.900391,1798.804688 3115.029297,1821.049194 z"/>
  <path fill="#040404" opacity="1.000000" stroke="none" d=" M3600.095703,1788.155518 C3611.255615,1774.034668 3621.558350,1761.044922 3631.842041,1748.079346 C3645.390869,1758.482178 3653.613281,1770.338135 3656.791016,1785.117310 C3664.338867,1820.219849 3671.646973,1855.374634 3678.915039,1890.536621 C3687.123291,1930.249268 3695.182129,1969.993164 3703.718750,2011.742676 C3685.350830,2042.231567 3666.223633,2073.980713 3646.354004,2106.961914 C3643.561768,2103.854248 3641.096436,2101.894775 3639.625488,2099.358643 C3600.260742,2031.476685 3560.995361,1963.537109 3521.749268,1895.586304 C3521.108643,1894.477051 3520.918945,1893.107544 3520.147705,1890.700928 C3531.822754,1873.079468 3546.269043,1856.641602 3559.658203,1839.423218 C3572.728516,1822.615356 3586.035889,1805.991333 3600.095703,1788.155518 z"/>
  <path fill="#040404" opacity="1.000000" stroke="none" d=" M3535.796875,1847.713867 C3527.870117,1857.641968 3520.784180,1866.429199 3514.048828,1874.781616 C3507.780518,1875.183350 3507.092041,1870.251587 3505.302002,1867.166382 C3457.191406,1784.239868 3409.213135,1701.236328 3361.291260,1618.200439 C3359.066162,1614.344971 3357.572998,1610.067017 3355.536133,1605.534546 C3454.234131,1604.270508 3563.426514,1660.464722 3623.867920,1735.546387 C3609.871826,1754.436890 3594.783691,1772.948242 3580.025635,1791.704468 C3565.607422,1810.028931 3551.103760,1828.286133 3535.796875,1847.713867 z"/>
  <path fill="#040404" opacity="1.000000" stroke="none" d=" M3315.811035,1619.682129 C3267.494385,1703.302246 3219.839111,1785.623047 3172.698486,1867.054443 C3170.660156,1867.501587 3170.062500,1867.809937 3169.557129,1867.698364 C3168.937988,1867.561768 3168.223877,1867.207520 3167.845215,1866.719238 C3134.390869,1823.572998 3100.947021,1780.418823 3067.574463,1737.209473 C3065.156250,1734.078613 3063.270752,1730.536499 3061.220459,1727.315918 C3107.678467,1661.231445 3244.780273,1597.407593 3323.087158,1605.987061 C3320.720703,1610.421265 3318.596191,1614.401978 3315.811035,1619.682129 z"/>
  <path fill="#0A0A0A" opacity="1.000000" stroke="none" d=" M3563.718018,2243.722168 C3551.956787,2263.171875 3540.846436,2281.315918 3529.875000,2299.543701 C3526.041016,2305.913086 3522.281494,2312.199463 3513.266602,2313.847412 C3502.626465,2305.754150 3495.957764,2293.231934 3487.231689,2282.513184 C3477.997314,2271.169678 3469.290771,2259.396240 3460.379883,2247.790527 C3451.874268,2236.712646 3443.303467,2225.683105 3434.944580,2214.495361 C3426.645020,2203.387207 3417.142822,2193.126221 3409.646484,2179.932617 C3412.898926,2178.994873 3415.249023,2177.729736 3417.601562,2177.725342 C3476.140137,2177.615723 3534.678711,2177.629883 3593.217529,2177.680664 C3595.082764,2177.682129 3596.947754,2178.297119 3598.527832,2178.575928 C3601.516113,2182.382324 3599.136475,2185.139893 3597.496094,2187.859619 C3586.508057,2206.078125 3575.455078,2224.257324 3563.718018,2243.722168 z"/>
  <path fill="#0A0A0A" opacity="1.000000" stroke="none" d=" M3151.034180,2285.005371 C3128.596924,2249.594238 3106.951416,2215.409668 3085.367188,2181.186768 C3085.183105,2180.895020 3085.818359,2180.086670 3086.071045,2179.519531 C3102.555176,2176.957520 3250.313721,2176.761230 3270.043213,2179.274902 C3270.171143,2180.484131 3270.876221,2182.148193 3270.336670,2182.838379 C3237.224121,2225.177979 3204.009766,2267.437988 3170.442627,2310.166504 C3160.655029,2303.944336 3157.738037,2293.899414 3151.034180,2285.005371 z"/>
  <path fill="#141414" opacity="1.000000" stroke="none" d=" M3139.987305,2300.057861 C3132.598877,2295.749756 3124.771484,2292.043945 3117.895264,2287.033203 C3080.428223,2259.729736 3048.406494,2227.097412 3022.904297,2188.251465 C3021.478516,2186.079346 3020.425049,2183.662842 3018.586426,2180.211914 C3021.475098,2179.140381 3023.655273,2177.663086 3025.861084,2177.623535 C3038.476074,2177.397705 3051.097412,2177.513916 3065.018311,2177.513916 C3078.763672,2195.979248 3090.466064,2216.029785 3103.163818,2235.377686 C3115.576904,2254.291504 3127.607422,2273.456787 3139.897461,2295.054199 C3139.988281,2298.416992 3139.987793,2299.237305 3139.987305,2300.057861 z"/>
  <path fill="#141414" opacity="1.000000" stroke="none" d=" M3556.895020,2281.990479 C3576.941406,2248.452881 3596.977295,2214.909180 3617.082764,2181.406982 C3617.721436,2180.342773 3619.075439,2179.707764 3621.846680,2177.441650 C3625.968018,2177.441650 3631.845459,2177.441406 3637.723145,2177.441406 C3643.575928,2177.441406 3649.428711,2177.441650 3654.291504,2177.441650 C3658.044678,2182.091553 3655.850098,2184.868408 3654.057373,2187.528320 C3629.027832,2224.661865 3599.480957,2257.536133 3560.840576,2283.454834 C3558.081787,2282.699219 3557.488525,2282.344727 3556.895020,2281.990479 z"/>
  <path fill="#141414" opacity="1.000000" stroke="none" d=" M2964.113770,2030.637085 C2964.595459,2028.157593 2965.119629,2027.175171 2965.644043,2026.192749 C2967.181396,2027.188965 2969.156982,2027.861694 2970.174316,2029.241333 C2973.332764,2033.524780 2976.174805,2038.046021 2979.054932,2042.529419 C2994.893799,2067.182373 3010.707520,2091.851318 3027.229736,2117.606201 C3021.110596,2130.277100 3013.995850,2142.488281 3005.945068,2154.763672 C2988.627441,2133.227783 2972.375977,2084.941162 2964.113770,2030.637085 z"/>
  <path fill="#141414" opacity="1.000000" stroke="none" d=" M3710.634277,2037.769043 C3707.239014,2074.611328 3690.959473,2124.234131 3672.938965,2152.364746 C3666.317871,2150.369141 3665.367676,2143.708008 3662.286377,2138.959961 C3659.049072,2133.971436 3656.439941,2128.574707 3653.490479,2123.237305 C3657.805176,2109.559082 3667.037109,2099.056396 3673.669678,2087.151123 C3682.976807,2070.446289 3692.715332,2053.981934 3705.020264,2037.262085 C3708.725342,2037.329224 3709.679932,2037.549194 3710.634277,2037.769043 z"/>
  <path fill="#141414" opacity="1.000000" stroke="none" d=" M2986.663330,1842.934814 C2997.843018,1814.925537 3010.694336,1789.577026 3027.970947,1766.653687 C3028.417725,1766.060913 3030.338867,1766.578979 3031.536133,1766.578979 C3031.941650,1767.910156 3032.941162,1769.358276 3032.583984,1770.281860 C3012.515137,1822.206421 2992.332520,1874.087036 2972.433105,1925.273071 C2966.165283,1925.813477 2965.187012,1922.929688 2965.764404,1919.273071 C2969.822021,1893.575073 2976.638428,1868.612915 2986.663330,1842.934814 z"/>
  <path fill="#292929" opacity="1.000000" stroke="none" d=" M3684.131348,1829.427734 C3707.161865,1880.276855 3716.754883,1932.350220 3714.644531,1986.791260 C3711.324219,1981.841064 3709.750244,1976.325684 3708.588867,1970.720093 C3699.432861,1926.524170 3690.322510,1882.318604 3681.302002,1838.094849 C3680.653076,1834.913086 3680.800049,1831.564453 3680.666748,1828.289795 C3680.655273,1828.007324 3681.351807,1827.421875 3681.663818,1827.457886 C3682.294434,1827.530884 3682.886963,1827.934570 3684.131348,1829.427734 z"/>
  <path fill="#141414" opacity="1.000000" stroke="none" d=" M3347.341309,2159.662842 C3334.342773,2159.663086 3323.186768,2159.663086 3311.727539,2159.663086 C3314.572754,2147.733887 3324.768066,2133.717041 3342.261963,2117.055176 C3353.183594,2129.347412 3362.554443,2142.698730 3373.449951,2156.718262 C3364.598633,2161.423340 3356.650635,2158.890869 3347.341309,2159.662842 z"/>
  <path fill="#292929" opacity="1.000000" stroke="none" d=" M3034.667969,2142.419922 C3037.181152,2140.598877 3039.404785,2139.193115 3040.287354,2139.785400 C3042.368896,2141.181885 3044.097412,2143.353760 3045.449951,2145.533691 C3047.799805,2149.320068 3049.757324,2153.349609 3052.472900,2158.375732 C3043.339111,2160.464355 3035.886963,2160.332275 3026.791992,2158.454834 C3029.404297,2152.946533 3031.586670,2148.344971 3034.667969,2142.419922 z"/>
  <path fill="#292929" opacity="1.000000" stroke="none" d=" M3636.507324,2148.491943 C3638.696289,2145.870605 3640.114502,2144.548096 3642.545166,2142.282227 C3645.644043,2147.531250 3648.499268,2152.367188 3652.315186,2158.830811 C3644.783936,2158.830811 3639.246094,2158.830811 3632.249023,2158.830811 C3633.606934,2155.311523 3634.671875,2152.551270 3636.507324,2148.491943 z"/>
  <path fill="#292929" opacity="1.000000" stroke="none" d=" M2968.365479,1928.257812 C2968.864502,1932.122925 2967.911865,1935.125366 2966.839844,1938.504517 C2962.684570,1934.357422 2962.473145,1930.808228 2968.365479,1928.257812 z"/>
  <path fill="#292929" opacity="1.000000" stroke="none" d=" M3710.547852,2037.688232 C3709.679932,2037.549194 3708.725342,2037.329224 3706.352051,2036.728760 C3706.701660,2033.858765 3704.358887,2027.298706 3710.613281,2031.859131 C3709.292480,2035.092163 3709.449219,2036.286987 3710.403809,2037.377686 C3710.403809,2037.377686 3710.461182,2037.607422 3710.547852,2037.688232 z"/>
  <path fill="#292929" opacity="1.000000" stroke="none" d=" M3140.437744,2301.090332 C3139.987793,2299.237305 3139.988281,2298.416992 3140.198242,2296.383301 C3144.958984,2299.584717 3145.003174,2300.226074 3140.437744,2301.090332 z"/>
  <path fill="#141414" opacity="1.000000" stroke="none" d=" M3711.053223,2036.670410 C3709.449219,2036.286987 3709.292480,2035.092163 3710.489258,2033.025024 C3711.869385,2033.385498 3712.088623,2034.620972 3711.053223,2036.670410 z"/>
  <path fill="#292929" opacity="1.000000" stroke="none" d=" M3034.929199,1761.011108 C3035.112549,1762.537354 3034.327393,1763.062012 3033.542236,1763.586670 C3033.681885,1762.394165 3033.821533,1761.201904 3034.929199,1761.011108 z"/>
  <path fill="#141414" opacity="1.000000" stroke="none" d=" M3559.491455,2283.692139 C3558.999756,2285.166016 3557.691406,2286.001465 3556.383301,2286.836670 C3556.120850,2285.862061 3555.858154,2284.887207 3556.245117,2282.951660 C3557.488525,2282.344727 3558.081787,2282.699219 3559.491455,2283.692139 z"/>
  <path fill="#292929" opacity="1.000000" stroke="none" d=" M3037.705078,1753.973389 C3038.117432,1753.626953 3038.155029,1754.951416 3038.155029,1754.951416 C3038.155029,1754.951416 3037.292725,1754.319702 3037.705078,1753.973389 z"/>
  <path fill="#010101" opacity="1.000000" stroke="none" d=" M2741.681152,2318.488770 C2711.810059,2336.554688 2680.726562,2344.838623 2647.349854,2344.836426 C2542.801758,2344.829834 2438.253906,2344.858643 2333.705811,2344.828369 C2330.556885,2344.827393 2327.407715,2344.327393 2324.514648,2344.081787 C2322.177734,2324.543945 2322.215088,1985.885742 2324.416260,1968.114258 C2327.518066,1964.732422 2331.703369,1965.750000 2335.495605,1965.747803 C2437.380127,1965.688965 2539.264893,1965.537964 2641.148193,1965.899658 C2655.707275,1965.951416 2670.542236,1967.197144 2684.760986,1970.202393 C2740.668457,1982.018921 2780.647461,2014.621338 2804.507568,2066.344482 C2828.109619,2117.507080 2830.891602,2170.340820 2813.571045,2223.889404 C2800.879639,2263.127197 2777.783691,2294.939209 2741.681152,2318.488770 z"/>
  <path fill="#010101" opacity="1.000000" stroke="none" d=" M2322.795166,1791.999268 C2322.921143,1734.083618 2323.036865,1678.168213 2323.239502,1622.252930 C2323.243896,1621.054565 2324.247559,1619.859863 2325.221680,1617.691772 C2328.548096,1617.463257 2332.378662,1616.972168 2336.209229,1616.970825 C2428.079102,1616.939087 2519.948975,1616.908447 2611.818848,1617.013672 C2630.569092,1617.035034 2649.070068,1619.645874 2666.631104,1626.322876 C2714.645996,1644.579224 2745.757324,1678.777588 2760.219482,1727.943237 C2770.021973,1761.267822 2770.184570,1794.704712 2760.988525,1828.370728 C2743.272461,1893.227783 2688.707031,1937.425781 2621.814209,1940.420044 C2617.160156,1940.628418 2612.498291,1940.750977 2607.840088,1940.752197 C2517.301758,1940.774658 2426.763184,1940.777954 2336.224854,1940.760010 C2332.346680,1940.759277 2328.468506,1940.517334 2326.196045,1940.441406 C2324.260254,1938.667480 2323.607666,1938.302490 2323.329834,1937.749390 C2323.049805,1937.192627 2323.082031,1936.448853 2323.080566,1935.786743 C2322.978760,1888.524292 2322.887451,1841.261719 2322.795166,1791.999268 z"/>
</g>
</svg>
